<?xml version="1.0" encoding="UTF-8" standalone="no"?>
<!DOCTYPE svg PUBLIC "-//W3C//DTD SVG 1.1//EN"
 "http://www.w3.org/Graphics/SVG/1.1/DTD/svg11.dtd">
<!-- Generated by graphviz version 2.43.0 (0)
 -->
<!-- Title: %3 Pages: 1 -->
<svg width="880pt" height="415pt"
 viewBox="0.00 0.00 880.00 415.48" xmlns="http://www.w3.org/2000/svg" xmlns:xlink="http://www.w3.org/1999/xlink">
<g id="graph0" class="graph" transform="scale(1 1) rotate(0) translate(36 379.48)">
<title>%3</title>
<polygon fill="dimgray" stroke="transparent" points="-36,36 -36,-379.48 844,-379.48 844,36 -36,36"/>
<text text-anchor="middle" x="404" y="-328.28" font-family="Helvetica,sans-Serif" font-size="14.00">Sweep&#39;s Plan &amp; Progress</text>
<!-- start -->
<g id="node1" class="node">
<title>start</title>
</g>
<!-- 22925cb1&#45;8ef8&#45;487b&#45;9aeb&#45;67a59710f5b0 -->
<g id="node3" class="node">
<title>22925cb1&#45;8ef8&#45;487b&#45;9aeb&#45;67a59710f5b0</title>
<ellipse fill="#0ee832" stroke="black" cx="501" cy="-277.61" rx="169.91" ry="26.74"/>
<text text-anchor="middle" x="501" y="-281.41" font-family="Helvetica,sans-Serif" font-size="14.00">✓ Modify</text>
<text text-anchor="middle" x="501" y="-266.41" font-family="Helvetica,sans-Serif" font-size="14.00">src/services/user.service.spec.ts</text>
</g>
<!-- start&#45;&gt;22925cb1&#45;8ef8&#45;487b&#45;9aeb&#45;67a59710f5b0 -->
<g id="edge5" class="edge">
<title>start&#45;&gt;22925cb1&#45;8ef8&#45;487b&#45;9aeb&#45;67a59710f5b0</title>
<path fill="none" stroke="black" d="M279.64,-277.61C282.96,-277.61 299,-277.61 321.06,-277.61"/>
<polygon fill="black" stroke="black" points="321.22,-281.11 331.22,-277.61 321.22,-274.11 321.22,-281.11"/>
<text text-anchor="middle" x="305.4" y="-284.41" font-family="Helvetica,sans-Serif" font-size="14.00">Start</text>
</g>
<!-- end -->
<g id="node2" class="node">
<title>end</title>
</g>
<!-- 22925cb1&#45;8ef8&#45;487b&#45;9aeb&#45;67a59710f5b0&#45;&gt;end -->
<g id="edge6" class="edge">
<title>22925cb1&#45;8ef8&#45;487b&#45;9aeb&#45;67a59710f5b0&#45;&gt;end</title>
<path fill="none" stroke="black" d="M670.88,-277.61C690.91,-277.61 707.88,-277.61 718.22,-277.61"/>
<polygon fill="black" stroke="black" points="718.36,-281.11 728.36,-277.61 718.36,-274.11 718.36,-281.11"/>
<text text-anchor="middle" x="699.6" y="-284.41" font-family="Helvetica,sans-Serif" font-size="14.00">Finish</text>
</g>
<!-- 63c9191a&#45;fb4f&#45;4262&#45;88fd&#45;97dffecfdc4f -->
<g id="node4" class="node">
<title>63c9191a&#45;fb4f&#45;4262&#45;88fd&#45;97dffecfdc4f</title>
<polygon fill="#ee0000" stroke="black" points="394,-213.74 0,-213.74 0,-177.74 394,-177.74 394,-213.74"/>
<text text-anchor="middle" x="197" y="-192.04" font-family="Helvetica,sans-Serif" font-size="14.00">✗ Ran sandbox for `src/services/user.service.spec.ts`.</text>
</g>
<!-- 22925cb1&#45;8ef8&#45;487b&#45;9aeb&#45;67a59710f5b0&#45;&gt;63c9191a&#45;fb4f&#45;4262&#45;88fd&#45;97dffecfdc4f -->
<g id="edge1" class="edge">
<title>22925cb1&#45;8ef8&#45;487b&#45;9aeb&#45;67a59710f5b0&#45;&gt;63c9191a&#45;fb4f&#45;4262&#45;88fd&#45;97dffecfdc4f</title>
<path fill="none" stroke="black" stroke-dasharray="5,2" d="M415.91,-254.26C370.52,-242.33 315.17,-227.79 271.49,-216.31"/>
<polygon fill="black" stroke="black" points="272.34,-212.92 261.78,-213.76 270.57,-219.69 272.34,-212.92"/>
</g>
<!-- 571c465c&#45;af5a&#45;4551&#45;ab06&#45;7cdad472e986 -->
<g id="node5" class="node">
<title>571c465c&#45;af5a&#45;4551&#45;ab06&#45;7cdad472e986</title>
<polygon fill="yellow" stroke="black" points="808,-213.74 412,-213.74 412,-177.74 808,-177.74 808,-213.74"/>
<text text-anchor="middle" x="610" y="-192.04" font-family="Helvetica,sans-Serif" font-size="14.00">⋯ Ran sandbox for `src/services/user.service.spec.ts`.</text>
</g>
<!-- 22925cb1&#45;8ef8&#45;487b&#45;9aeb&#45;67a59710f5b0&#45;&gt;571c465c&#45;af5a&#45;4551&#45;ab06&#45;7cdad472e986 -->
<g id="edge4" class="edge">
<title>22925cb1&#45;8ef8&#45;487b&#45;9aeb&#45;67a59710f5b0&#45;&gt;571c465c&#45;af5a&#45;4551&#45;ab06&#45;7cdad472e986</title>
<path fill="none" stroke="black" stroke-dasharray="5,2" d="M535.79,-251.12C549.38,-241.16 564.87,-229.81 578.17,-220.07"/>
<polygon fill="black" stroke="black" points="580.55,-222.66 586.54,-213.93 576.41,-217.01 580.55,-222.66"/>
</g>
<!-- 7689c8cd&#45;9abe&#45;404b&#45;9bc4&#45;c747f4c58949 -->
<g id="node6" class="node">
<title>7689c8cd&#45;9abe&#45;404b&#45;9bc4&#45;c747f4c58949</title>
<ellipse fill="#0ee832" stroke="black" cx="197" cy="-99.87" rx="169.91" ry="26.74"/>
<text text-anchor="middle" x="197" y="-103.67" font-family="Helvetica,sans-Serif" font-size="14.00">✓ Modify</text>
<text text-anchor="middle" x="197" y="-88.67" font-family="Helvetica,sans-Serif" font-size="14.00">src/services/user.service.spec.ts</text>
</g>
<!-- 63c9191a&#45;fb4f&#45;4262&#45;88fd&#45;97dffecfdc4f&#45;&gt;7689c8cd&#45;9abe&#45;404b&#45;9bc4&#45;c747f4c58949 -->
<g id="edge2" class="edge">
<title>63c9191a&#45;fb4f&#45;4262&#45;88fd&#45;97dffecfdc4f&#45;&gt;7689c8cd&#45;9abe&#45;404b&#45;9bc4&#45;c747f4c58949</title>
<path fill="none" stroke="black" d="M197,-177.52C197,-166.22 197,-151.01 197,-137.12"/>
<polygon fill="black" stroke="black" points="200.5,-136.84 197,-126.84 193.5,-136.84 200.5,-136.84"/>
<text text-anchor="middle" x="294.5" y="-148.54" font-family="Helvetica,sans-Serif" font-size="14.00">Additional changes required</text>
</g>
<!-- e4acb747&#45;b228&#45;44bb&#45;93cb&#45;e1a4a18878a7 -->
<g id="node7" class="node">
<title>e4acb747&#45;b228&#45;44bb&#45;93cb&#45;e1a4a18878a7</title>
<polygon fill="#0ee832" stroke="black" points="394,-36 0,-36 0,0 394,0 394,-36"/>
<text text-anchor="middle" x="197" y="-14.3" font-family="Helvetica,sans-Serif" font-size="14.00">✓ Ran sandbox for `src/services/user.service.spec.ts`.</text>
</g>
<!-- 7689c8cd&#45;9abe&#45;404b&#45;9bc4&#45;c747f4c58949&#45;&gt;e4acb747&#45;b228&#45;44bb&#45;93cb&#45;e1a4a18878a7 -->
<g id="edge3" class="edge">
<title>7689c8cd&#45;9abe&#45;404b&#45;9bc4&#45;c747f4c58949&#45;&gt;e4acb747&#45;b228&#45;44bb&#45;93cb&#45;e1a4a18878a7</title>
<path fill="none" stroke="black" stroke-dasharray="5,2" d="M197,-72.72C197,-64.27 197,-54.89 197,-46.36"/>
<polygon fill="black" stroke="black" points="200.5,-46.15 197,-36.15 193.5,-46.15 200.5,-46.15"/>
</g>
</g>
</svg>
