<?xml version="1.0" encoding="UTF-8" standalone="no"?>
<!DOCTYPE svg PUBLIC "-//W3C//DTD SVG 1.1//EN"
 "http://www.w3.org/Graphics/SVG/1.1/DTD/svg11.dtd">
<!-- Generated by graphviz version 2.43.0 (0)
 -->
<!-- Title: %3 Pages: 1 -->
<svg width="523pt" height="238pt"
 viewBox="0.00 0.00 523.00 237.74" xmlns="http://www.w3.org/2000/svg" xmlns:xlink="http://www.w3.org/1999/xlink">
<g id="graph0" class="graph" transform="scale(1 1) rotate(0) translate(36 201.74)">
<title>%3</title>
<polygon fill="dimgray" stroke="transparent" points="-36,36 -36,-201.74 487,-201.74 487,36 -36,36"/>
<text text-anchor="middle" x="225.5" y="-150.54" font-family="Helvetica,sans-Serif" font-size="14.00">Sweep&#39;s Plan &amp; Progress</text>
<!-- start -->
<g id="node1" class="node">
<title>start</title>
</g>
<!-- 22925cb1&#45;8ef8&#45;487b&#45;9aeb&#45;67a59710f5b0 -->
<g id="node3" class="node">
<title>22925cb1&#45;8ef8&#45;487b&#45;9aeb&#45;67a59710f5b0</title>
<ellipse fill="#0ee832" stroke="black" cx="222.5" cy="-99.87" rx="169.91" ry="26.74"/>
<text text-anchor="middle" x="222.5" y="-103.67" font-family="Helvetica,sans-Serif" font-size="14.00">✓ Modify</text>
<text text-anchor="middle" x="222.5" y="-88.67" font-family="Helvetica,sans-Serif" font-size="14.00">src/services/user.service.spec.ts</text>
</g>
<!-- start&#45;&gt;22925cb1&#45;8ef8&#45;487b&#45;9aeb&#45;67a59710f5b0 -->
<g id="edge2" class="edge">
<title>start&#45;&gt;22925cb1&#45;8ef8&#45;487b&#45;9aeb&#45;67a59710f5b0</title>
<path fill="none" stroke="black" d="M1.14,-99.87C4.46,-99.87 20.5,-99.87 42.56,-99.87"/>
<polygon fill="black" stroke="black" points="42.72,-103.37 52.72,-99.87 42.72,-96.37 42.72,-103.37"/>
<text text-anchor="middle" x="26.9" y="-106.67" font-family="Helvetica,sans-Serif" font-size="14.00">Start</text>
</g>
<!-- end -->
<g id="node2" class="node">
<title>end</title>
</g>
<!-- 22925cb1&#45;8ef8&#45;487b&#45;9aeb&#45;67a59710f5b0&#45;&gt;end -->
<g id="edge3" class="edge">
<title>22925cb1&#45;8ef8&#45;487b&#45;9aeb&#45;67a59710f5b0&#45;&gt;end</title>
<path fill="none" stroke="black" d="M392.38,-99.87C412.41,-99.87 429.38,-99.87 439.72,-99.87"/>
<polygon fill="black" stroke="black" points="439.86,-103.37 449.86,-99.87 439.86,-96.37 439.86,-103.37"/>
<text text-anchor="middle" x="421.1" y="-106.67" font-family="Helvetica,sans-Serif" font-size="14.00">Finish</text>
</g>
<!-- 63c9191a&#45;fb4f&#45;4262&#45;88fd&#45;97dffecfdc4f -->
<g id="node4" class="node">
<title>63c9191a&#45;fb4f&#45;4262&#45;88fd&#45;97dffecfdc4f</title>
<polygon fill="yellow" stroke="black" points="420.5,-36 24.5,-36 24.5,0 420.5,0 420.5,-36"/>
<text text-anchor="middle" x="222.5" y="-14.3" font-family="Helvetica,sans-Serif" font-size="14.00">⋯ Ran sandbox for `src/services/user.service.spec.ts`.</text>
</g>
<!-- 22925cb1&#45;8ef8&#45;487b&#45;9aeb&#45;67a59710f5b0&#45;&gt;63c9191a&#45;fb4f&#45;4262&#45;88fd&#45;97dffecfdc4f -->
<g id="edge1" class="edge">
<title>22925cb1&#45;8ef8&#45;487b&#45;9aeb&#45;67a59710f5b0&#45;&gt;63c9191a&#45;fb4f&#45;4262&#45;88fd&#45;97dffecfdc4f</title>
<path fill="none" stroke="black" stroke-dasharray="5,2" d="M222.5,-72.72C222.5,-64.27 222.5,-54.89 222.5,-46.36"/>
<polygon fill="black" stroke="black" points="226,-46.15 222.5,-36.15 219,-46.15 226,-46.15"/>
</g>
</g>
</svg>
