<?xml version="1.0" encoding="UTF-8" standalone="no"?>
<!DOCTYPE svg PUBLIC "-//W3C//DTD SVG 1.1//EN"
 "http://www.w3.org/Graphics/SVG/1.1/DTD/svg11.dtd">
<!-- Generated by graphviz version 2.43.0 (0)
 -->
<!-- Title: %3 Pages: 1 -->
<svg width="877pt" height="415pt"
 viewBox="0.00 0.00 877.00 415.48" xmlns="http://www.w3.org/2000/svg" xmlns:xlink="http://www.w3.org/1999/xlink">
<g id="graph0" class="graph" transform="scale(1 1) rotate(0) translate(36 379.48)">
<title>%3</title>
<polygon fill="dimgray" stroke="transparent" points="-36,36 -36,-379.48 841,-379.48 841,36 -36,36"/>
<text text-anchor="middle" x="402.5" y="-328.28" font-family="Helvetica,sans-Serif" font-size="14.00">Sweep&#39;s Plan &amp; Progress</text>
<!-- start -->
<g id="node1" class="node">
<title>start</title>
</g>
<!-- 22925cb1&#45;8ef8&#45;487b&#45;9aeb&#45;67a59710f5b0 -->
<g id="node3" class="node">
<title>22925cb1&#45;8ef8&#45;487b&#45;9aeb&#45;67a59710f5b0</title>
<ellipse fill="#0ee832" stroke="black" cx="500" cy="-277.61" rx="169.91" ry="26.74"/>
<text text-anchor="middle" x="500" y="-281.41" font-family="Helvetica,sans-Serif" font-size="14.00">✓ Modify</text>
<text text-anchor="middle" x="500" y="-266.41" font-family="Helvetica,sans-Serif" font-size="14.00">src/services/user.service.spec.ts</text>
</g>
<!-- start&#45;&gt;22925cb1&#45;8ef8&#45;487b&#45;9aeb&#45;67a59710f5b0 -->
<g id="edge5" class="edge">
<title>start&#45;&gt;22925cb1&#45;8ef8&#45;487b&#45;9aeb&#45;67a59710f5b0</title>
<path fill="none" stroke="black" d="M278.64,-277.61C281.96,-277.61 298,-277.61 320.06,-277.61"/>
<polygon fill="black" stroke="black" points="320.22,-281.11 330.22,-277.61 320.22,-274.11 320.22,-281.11"/>
<text text-anchor="middle" x="304.4" y="-284.41" font-family="Helvetica,sans-Serif" font-size="14.00">Start</text>
</g>
<!-- end -->
<g id="node2" class="node">
<title>end</title>
</g>
<!-- 22925cb1&#45;8ef8&#45;487b&#45;9aeb&#45;67a59710f5b0&#45;&gt;end -->
<g id="edge6" class="edge">
<title>22925cb1&#45;8ef8&#45;487b&#45;9aeb&#45;67a59710f5b0&#45;&gt;end</title>
<path fill="none" stroke="black" d="M669.88,-277.61C689.91,-277.61 706.88,-277.61 717.22,-277.61"/>
<polygon fill="black" stroke="black" points="717.36,-281.11 727.36,-277.61 717.36,-274.11 717.36,-281.11"/>
<text text-anchor="middle" x="698.6" y="-284.41" font-family="Helvetica,sans-Serif" font-size="14.00">Finish</text>
</g>
<!-- 63c9191a&#45;fb4f&#45;4262&#45;88fd&#45;97dffecfdc4f -->
<g id="node4" class="node">
<title>63c9191a&#45;fb4f&#45;4262&#45;88fd&#45;97dffecfdc4f</title>
<polygon fill="#ee0000" stroke="black" points="395,-213.74 1,-213.74 1,-177.74 395,-177.74 395,-213.74"/>
<text text-anchor="middle" x="198" y="-192.04" font-family="Helvetica,sans-Serif" font-size="14.00">✗ Ran sandbox for `src/services/user.service.spec.ts`.</text>
</g>
<!-- 22925cb1&#45;8ef8&#45;487b&#45;9aeb&#45;67a59710f5b0&#45;&gt;63c9191a&#45;fb4f&#45;4262&#45;88fd&#45;97dffecfdc4f -->
<g id="edge1" class="edge">
<title>22925cb1&#45;8ef8&#45;487b&#45;9aeb&#45;67a59710f5b0&#45;&gt;63c9191a&#45;fb4f&#45;4262&#45;88fd&#45;97dffecfdc4f</title>
<path fill="none" stroke="black" stroke-dasharray="5,2" d="M415.47,-254.26C370.47,-242.35 315.62,-227.85 272.27,-216.38"/>
<polygon fill="black" stroke="black" points="272.92,-212.93 262.36,-213.76 271.13,-219.7 272.92,-212.93"/>
</g>
<!-- 571c465c&#45;af5a&#45;4551&#45;ab06&#45;7cdad472e986 -->
<g id="node5" class="node">
<title>571c465c&#45;af5a&#45;4551&#45;ab06&#45;7cdad472e986</title>
<polygon fill="white" stroke="black" points="805,-213.74 413,-213.74 413,-177.74 805,-177.74 805,-213.74"/>
<text text-anchor="middle" x="609" y="-192.04" font-family="Helvetica,sans-Serif" font-size="14.00">▶ Ran sandbox for `src/services/user.service.spec.ts`.</text>
</g>
<!-- 22925cb1&#45;8ef8&#45;487b&#45;9aeb&#45;67a59710f5b0&#45;&gt;571c465c&#45;af5a&#45;4551&#45;ab06&#45;7cdad472e986 -->
<g id="edge4" class="edge">
<title>22925cb1&#45;8ef8&#45;487b&#45;9aeb&#45;67a59710f5b0&#45;&gt;571c465c&#45;af5a&#45;4551&#45;ab06&#45;7cdad472e986</title>
<path fill="none" stroke="black" stroke-dasharray="5,2" d="M534.79,-251.12C548.38,-241.16 563.87,-229.81 577.17,-220.07"/>
<polygon fill="black" stroke="black" points="579.55,-222.66 585.54,-213.93 575.41,-217.01 579.55,-222.66"/>
</g>
<!-- 7689c8cd&#45;9abe&#45;404b&#45;9bc4&#45;c747f4c58949 -->
<g id="node6" class="node">
<title>7689c8cd&#45;9abe&#45;404b&#45;9bc4&#45;c747f4c58949</title>
<ellipse fill="#0ee832" stroke="black" cx="198" cy="-99.87" rx="169.91" ry="26.74"/>
<text text-anchor="middle" x="198" y="-103.67" font-family="Helvetica,sans-Serif" font-size="14.00">✓ Modify</text>
<text text-anchor="middle" x="198" y="-88.67" font-family="Helvetica,sans-Serif" font-size="14.00">src/services/user.service.spec.ts</text>
</g>
<!-- 63c9191a&#45;fb4f&#45;4262&#45;88fd&#45;97dffecfdc4f&#45;&gt;7689c8cd&#45;9abe&#45;404b&#45;9bc4&#45;c747f4c58949 -->
<g id="edge2" class="edge">
<title>63c9191a&#45;fb4f&#45;4262&#45;88fd&#45;97dffecfdc4f&#45;&gt;7689c8cd&#45;9abe&#45;404b&#45;9bc4&#45;c747f4c58949</title>
<path fill="none" stroke="black" d="M198,-177.52C198,-166.22 198,-151.01 198,-137.12"/>
<polygon fill="black" stroke="black" points="201.5,-136.84 198,-126.84 194.5,-136.84 201.5,-136.84"/>
<text text-anchor="middle" x="295.5" y="-148.54" font-family="Helvetica,sans-Serif" font-size="14.00">Additional changes required</text>
</g>
<!-- e4acb747&#45;b228&#45;44bb&#45;93cb&#45;e1a4a18878a7 -->
<g id="node7" class="node">
<title>e4acb747&#45;b228&#45;44bb&#45;93cb&#45;e1a4a18878a7</title>
<polygon fill="yellow" stroke="black" points="396,-36 0,-36 0,0 396,0 396,-36"/>
<text text-anchor="middle" x="198" y="-14.3" font-family="Helvetica,sans-Serif" font-size="14.00">⋯ Ran sandbox for `src/services/user.service.spec.ts`.</text>
</g>
<!-- 7689c8cd&#45;9abe&#45;404b&#45;9bc4&#45;c747f4c58949&#45;&gt;e4acb747&#45;b228&#45;44bb&#45;93cb&#45;e1a4a18878a7 -->
<g id="edge3" class="edge">
<title>7689c8cd&#45;9abe&#45;404b&#45;9bc4&#45;c747f4c58949&#45;&gt;e4acb747&#45;b228&#45;44bb&#45;93cb&#45;e1a4a18878a7</title>
<path fill="none" stroke="black" stroke-dasharray="5,2" d="M198,-72.72C198,-64.27 198,-54.89 198,-46.36"/>
<polygon fill="black" stroke="black" points="201.5,-46.15 198,-36.15 194.5,-46.15 201.5,-46.15"/>
</g>
</g>
</svg>
